# xmcd
#
# Track frame offsets: 
#        187
#        17232
#        38810
#        52455
#        72405
#        90270
#        108157
#        124795
#        140747
#        169202
#        187825
#        221700
#
# Disc length: 3359 seconds
#
# Revision: 1
# Processed by: cddbd v1.5.2PL0 Copyright (c) Steve Scherf et al.
# Submitted via: ExactAudioCopyFreeDBPlugin 1.0
#
DISCID=af0d1d0c
DTITLE=Ron Banks And The Dramatics - The Dramatic Jackpot
DYEAR=1975
DGENRE=Soul
TTITLE0=I'm Going By The Stars In Your Eyes
TTITLE1=Good Thing Don't Come Easy
TTITLE2=Trying To Get Over Losing You
TTITLE3=I Cried All The Way Home
TTITLE4=Never Let You Go
TTITLE5=A Thousand Shades Of Blue
TTITLE6=Me Myself And I
TTITLE7=I Dig Your Music
TTITLE8=Me And Mrs. Jones
TTITLE9=How Do You Feel
TTITLE10=Do What You Want To Do
TTITLE11=Welcome Back Home
EXTD=
EXTT0=
EXTT1=
EXTT2=
EXTT3=
EXTT4=
EXTT5=
EXTT6=
EXTT7=
EXTT8=
EXTT9=
EXTT10=
EXTT11=
PLAYORDER=
